<?xml version="1.0" encoding="utf-8"?>
<!-- Generator: Adobe Illustrator 25.2.0, SVG Export Plug-In . SVG Version: 6.00 Build 0)  -->
<svg version="1.1" id="Layer_1" xmlns="http://www.w3.org/2000/svg" xmlns:xlink="http://www.w3.org/1999/xlink" x="0px" y="0px"
	 viewBox="0 0 175 40" style="enable-background:new 0 0 175 40;" xml:space="preserve">
<style type="text/css">
	.st0{fill:#FFFFFF;}
	.st1{clip-path:url(#SVGID_2_);fill:#FFFFFF;}
	.st2{clip-path:url(#SVGID_4_);fill:#FFFFFF;}
	.st3{clip-path:url(#SVGID_6_);fill:#FFFFFF;}
	.st4{fill:#EC671B;}
	.st5{clip-path:url(#SVGID_8_);fill:#FFFFFF;}
	.st6{clip-path:url(#SVGID_10_);fill:#FFFFFF;}
	.st7{clip-path:url(#SVGID_12_);fill:#FFFFFF;}
</style>
<polygon class="st0" points="52.09,17.2 52.09,24.84 50.74,24.84 50.74,17.2 48.31,17.2 48.31,15.99 54.52,15.99 54.52,17.2 "/>
<polygon class="st0" points="60.98,24.84 60.98,20.97 57.39,20.97 57.39,24.84 56.05,24.84 56.05,15.99 57.39,15.99 57.39,19.77 
	60.98,19.77 60.98,15.99 62.33,15.99 62.33,24.84 "/>
<polygon class="st0" points="64.64,24.84 64.64,15.99 70.29,15.99 70.29,17.2 65.98,17.2 65.98,19.78 69.66,19.78 69.66,20.97 
	65.98,20.97 65.98,23.63 70.29,23.63 70.29,24.84 "/>
<g>
	<defs>
		<rect id="SVGID_1_" x="7.46" y="2.92" width="159.58" height="34.99"/>
	</defs>
	<clipPath id="SVGID_2_">
		<use xlink:href="#SVGID_1_"  style="overflow:visible;"/>
	</clipPath>
	<path class="st1" d="M77.66,24.91c-0.92,0-1.72-0.33-2.32-0.94c-0.87-0.87-0.86-1.85-0.86-3.55c0-1.7-0.01-2.68,0.86-3.55
		c0.61-0.61,1.4-0.94,2.32-0.94c1.63,0,2.85,0.96,3.16,2.72h-1.37c-0.21-0.9-0.81-1.52-1.79-1.52c-0.52,0-0.99,0.2-1.31,0.53
		c-0.44,0.47-0.53,0.98-0.53,2.76c0,1.78,0.1,2.29,0.53,2.76c0.31,0.34,0.78,0.53,1.31,0.53c0.98,0,1.59-0.62,1.8-1.52h1.35
		C80.52,23.96,79.26,24.91,77.66,24.91"/>
	<path class="st1" d="M86.78,17.67c-0.31-0.33-0.79-0.55-1.32-0.55c-0.52,0-1.01,0.21-1.32,0.55c-0.43,0.47-0.52,0.97-0.52,2.75
		c0,1.78,0.09,2.27,0.52,2.75c0.31,0.34,0.8,0.55,1.32,0.55c0.52,0,1.01-0.21,1.32-0.55c0.43-0.47,0.52-0.97,0.52-2.75
		C87.31,18.64,87.22,18.14,86.78,17.67 M87.8,23.97c-0.61,0.61-1.39,0.94-2.34,0.94c-0.94,0-1.71-0.33-2.32-0.94
		c-0.87-0.87-0.86-1.85-0.86-3.55c0-1.7-0.01-2.68,0.86-3.55c0.61-0.61,1.38-0.94,2.32-0.94c0.94,0,1.73,0.34,2.34,0.94
		c0.87,0.87,0.84,1.85,0.84,3.55C88.65,22.12,88.67,23.1,87.8,23.97"/>
</g>
<path class="st0" d="M93.27,17.99l-1.38,3.93h2.72L93.27,17.99z M95.59,24.84l-0.61-1.78h-3.49l-0.61,1.78h-1.43l3.24-8.85h1.08
	l3.24,8.85H95.59z"/>
<g>
	<defs>
		<rect id="SVGID_3_" x="7.46" y="2.92" width="159.58" height="34.99"/>
	</defs>
	<clipPath id="SVGID_4_">
		<use xlink:href="#SVGID_3_"  style="overflow:visible;"/>
	</clipPath>
	<path class="st2" d="M101.01,24.91c-0.92,0-1.72-0.33-2.32-0.94c-0.87-0.87-0.86-1.85-0.86-3.55c0-1.7-0.01-2.68,0.86-3.55
		c0.61-0.61,1.4-0.94,2.32-0.94c1.63,0,2.85,0.96,3.16,2.72h-1.37c-0.21-0.9-0.81-1.52-1.79-1.52c-0.52,0-0.99,0.2-1.31,0.53
		c-0.43,0.47-0.53,0.98-0.53,2.76c0,1.78,0.1,2.29,0.53,2.76c0.31,0.34,0.78,0.53,1.31,0.53c0.98,0,1.59-0.62,1.8-1.52h1.35
		C103.87,23.96,102.61,24.91,101.01,24.91"/>
</g>
<polygon class="st0" points="110.89,24.84 110.89,20.97 107.3,20.97 107.3,24.84 105.96,24.84 105.96,15.99 107.3,15.99 
	107.3,19.77 110.89,19.77 110.89,15.99 112.23,15.99 112.23,24.84 "/>
<polygon class="st0" points="114.55,24.84 114.55,15.99 120.2,15.99 120.2,17.2 115.89,17.2 115.89,19.78 119.57,19.78 
	119.57,20.97 115.89,20.97 115.89,23.63 120.2,23.63 120.2,24.84 "/>
<g>
	<defs>
		<rect id="SVGID_5_" x="7.46" y="2.92" width="159.58" height="34.99"/>
	</defs>
	<clipPath id="SVGID_6_">
		<use xlink:href="#SVGID_5_"  style="overflow:visible;"/>
	</clipPath>
	<path class="st3" d="M124.39,24.91c-1.33,0-2.29-0.31-3.13-1.17l0.89-0.88c0.65,0.65,1.36,0.84,2.26,0.84
		c1.16,0,1.83-0.5,1.83-1.35c0-0.39-0.11-0.71-0.35-0.92c-0.22-0.21-0.45-0.3-0.97-0.37l-1.04-0.15c-0.72-0.1-1.29-0.35-1.68-0.71
		c-0.43-0.41-0.65-0.97-0.65-1.69c0-1.54,1.12-2.6,2.96-2.6c1.17,0,1.99,0.3,2.75,1.01l-0.86,0.84c-0.55-0.52-1.18-0.68-1.93-0.68
		c-1.04,0-1.62,0.6-1.62,1.38c0,0.32,0.1,0.61,0.34,0.82c0.22,0.2,0.58,0.35,0.99,0.41l1.01,0.15c0.82,0.12,1.28,0.32,1.65,0.66
		c0.49,0.42,0.72,1.06,0.72,1.81C127.57,23.95,126.24,24.91,124.39,24.91"/>
</g>
<polygon class="st4" points="128.57,18.8 128.57,15.99 129.98,15.99 129.98,17.4 "/>
<polygon class="st0" points="137.88,24.84 136.83,24.84 133.92,15.99 135.32,15.99 137.35,22.43 139.39,15.99 140.81,15.99 "/>
<g>
	<defs>
		<rect id="SVGID_7_" x="7.46" y="2.92" width="159.58" height="34.99"/>
	</defs>
	<clipPath id="SVGID_8_">
		<use xlink:href="#SVGID_7_"  style="overflow:visible;"/>
	</clipPath>
	<path class="st5" d="M146.08,17.67c-0.31-0.33-0.79-0.55-1.32-0.55c-0.52,0-1.01,0.21-1.32,0.55c-0.43,0.47-0.52,0.97-0.52,2.75
		c0,1.78,0.09,2.27,0.52,2.75c0.31,0.34,0.8,0.55,1.32,0.55c0.52,0,1.01-0.21,1.32-0.55c0.43-0.47,0.52-0.97,0.52-2.75
		C146.6,18.64,146.51,18.14,146.08,17.67 M147.1,23.97c-0.61,0.61-1.39,0.94-2.34,0.94s-1.71-0.33-2.32-0.94
		c-0.87-0.87-0.86-1.85-0.86-3.55c0-1.7-0.01-2.68,0.86-3.55c0.61-0.61,1.38-0.94,2.32-0.94s1.73,0.34,2.34,0.94
		c0.87,0.87,0.84,1.85,0.84,3.55C147.94,22.12,147.97,23.1,147.1,23.97"/>
</g>
<rect x="149.93" y="15.99" class="st0" width="1.34" height="8.85"/>
<g>
	<defs>
		<rect id="SVGID_9_" x="7.46" y="2.92" width="159.58" height="34.99"/>
	</defs>
	<clipPath id="SVGID_10_">
		<use xlink:href="#SVGID_9_"  style="overflow:visible;"/>
	</clipPath>
	<path class="st6" d="M156.44,24.91c-0.92,0-1.72-0.33-2.32-0.94c-0.87-0.87-0.86-1.85-0.86-3.55c0-1.7-0.01-2.68,0.86-3.55
		c0.61-0.61,1.4-0.94,2.32-0.94c1.63,0,2.85,0.96,3.16,2.72h-1.37c-0.21-0.9-0.81-1.52-1.79-1.52c-0.52,0-0.99,0.2-1.31,0.53
		c-0.43,0.47-0.53,0.98-0.53,2.76c0,1.78,0.1,2.29,0.53,2.76c0.31,0.34,0.78,0.53,1.31,0.53c0.98,0,1.59-0.62,1.8-1.52h1.35
		C159.3,23.96,158.04,24.91,156.44,24.91"/>
</g>
<polygon class="st0" points="161.39,15.99 161.39,24.84 167.04,24.84 167.04,23.63 162.73,23.63 162.73,20.97 166.41,20.97 
	166.41,19.78 162.73,19.78 162.73,17.2 167.04,17.2 167.04,15.99 "/>
<g>
	<defs>
		<rect id="SVGID_11_" x="7.46" y="2.92" width="159.58" height="34.99"/>
	</defs>
	<clipPath id="SVGID_12_">
		<use xlink:href="#SVGID_11_"  style="overflow:visible;"/>
	</clipPath>
	<path class="st7" d="M36.79,16.83l-4.47,10.7h-2.55l-4.5-11.02c-0.49-1.19-0.93-1.74-1.91-1.74V13.7h7.74v1.07h-0.12
		c-0.99,0-1.48,0.32-1.48,0.96c0,0.2,0.06,0.46,0.2,0.81l2.78,6.9l2.52-6.09c0.2-0.52,0.32-0.93,0.32-1.22
		c0-0.96-0.58-1.33-1.86-1.36V13.7h5.37v1.07C37.87,14.89,37.34,15.53,36.79,16.83 M17.97,27.54c-3.88,0-6.9-2.99-6.9-7.1
		c0-4.15,2.96-7.13,7.16-7.13c3.07,0,5.1,1.68,5.1,3.54c0,1.19-0.87,2.06-1.97,2.06c-1.13,0-1.97-0.81-1.97-1.91
		c0-0.67,0.29-1.22,0.87-1.62c-0.55-0.61-1.13-0.93-1.86-0.93c-1.83,0-2.67,1.88-2.67,5.77c0,3.71,0.96,5.51,3.25,5.51
		c1.3,0,2.52-0.7,3.6-2.12l1.13,0.75C22.21,26.46,20.29,27.54,17.97,27.54 M24.96,2.92c-9.66,0-17.5,7.83-17.5,17.5
		c0,9.66,7.83,17.5,17.5,17.5s17.5-7.83,17.5-17.5C42.46,10.75,34.62,2.92,24.96,2.92"/>
</g>
</svg>
